<svg xmlns="http://www.w3.org/2000/svg" viewBox="0 0 320 74" preserveAspectRatio="none"><path d="M 11 11 A 23.2 10.2 0 0 1 57.5 11.0 A 23.9 11.7 0 0 1 105.4 11.0 A 25.9 10.0 0 0 1 157.1 11.0 A 27.9 11.7 0 0 1 212.9 11.0 A 24.1 11.5 0 0 1 261.1 11.0 A 23.9 10.0 0 0 1 309.0 11.0 A 11.0 26.0 0 0 1 309 63 A 25.6 12.3 0 0 1 257.8 63.0 A 25.0 10.7 0 0 1 207.7 63.0 A 24.8 10.1 0 0 1 158.1 63.0 A 28.7 10.5 0 0 1 100.8 63.0 A 22.7 10.6 0 0 1 55.4 63.0 A 22.2 12.3 0 0 1 11.0 63.0 A 11.0 26.0 0 0 1 11 11 Z" fill="none" stroke="#d4514a" stroke-width="5" stroke-linejoin="round" vector-effect="non-scaling-stroke"/></svg>