<svg class='ink' viewBox='0 0 735 812' xmlns='http://www.w3.org/2000/svg' fill-rule='evenodd' aria-hidden='true'><path class='ink__s' pathLength='1' style='--d:0.00s' d="M459 299C458 298 456 297 453 297C450 297 445 296 442 296C440 295 434 295 430 294C426 294 422 294 422 293C422 293 420 293 418 293C416 293 413 293 413 292C412 291 402 290 402 291C402 292 398 292 398 291C397 290 395 290 394 290C392 290 390 290 389 289C389 288 387 288 385 288C380 287 370 285 369 283C367 283 366 282 364 282C363 282 360 281 357 281C343 276 341 276 339 276C338 277 336 277 336 276C335 275 332 275 323 273C321 273 318 272 316 271C315 271 312 270 309 270C306 270 301 270 297 269C294 269 289 268 288 269C286 269 283 269 282 268C281 267 276 267 270 267C263 266 260 266 259 265C258 264 257 263 255 264C254 264 253 264 253 263C252 262 251 262 250 262C249 262 247 261 246 260C245 260 243 258 241 258C236 257 230 255 229 253C228 253 226 252 224 252C222 252 219 251 217 251C216 250 214 249 214 250C213 250 211 249 208 248C203 245 197 244 194 246C194 247 193 247 192 246C191 246 190 246 189 247C188 248 188 248 187 247C186 247 182 246 178 246C175 246 171 246 170 246C169 245 168 246 165 247C164 249 162 250 161 249C160 249 159 249 158 250C157 251 157 251 155 250C155 249 151 249 146 248C141 248 136 248 135 248C133 248 126 240 126 237C126 237 125 236 125 236C124 235 123 233 122 230C121 223 122 221 127 219C131 218 142 213 143 212C143 212 146 210 148 209C151 207 154 205 155 204C156 204 157 203 158 203C158 203 161 202 163 200C165 198 170 194 175 192C184 187 184 186 179 183C177 181 175 180 175 179C175 178 173 177 171 176C169 175 167 174 167 175C167 175 165 174 163 171C161 169 159 167 159 166C159 166 158 164 156 162C152 158 148 152 145 145C144 143 142 140 140 139C139 137 138 135 137 132C137 130 136 128 136 128C135 127 135 127 136 126C137 124 137 122 136 102C135 96 135 95 137 94C139 93 139 92 139 84C139 75 141 64 143 58C144 57 146 53 147 50C149 46 154 39 159 33C160 32 163 30 166 28C169 26 172 24 173 23C174 22 175 21 175 21C176 21 178 20 179 19C181 17 183 16 184 15C185 15 187 14 188 12C189 11 191 10 192 10C193 10 194 9 194 9C195 8 196 7 197 8C198 8 200 8 201 7C202 6 206 6 209 6C212 6 214 5 214 5C215 5 218 4 222 4C226 4 230 4 230 3C231 3 235 3 238 2C243 2 245 2 246 1C247 -0 247 -0 249 1C251 3 255 3 256 1C257 -0 257 0 257 1C257 3 262 4 269 4C271 3 273 4 273 4C274 5 284 9 287 9C290 9 290 10 292 14C294 17 295 18 297 18C298 17 299 17 300 18C300 19 301 20 301 19C302 19 309 22 310 23C310 24 312 25 313 26C315 26 318 28 320 29C322 30 325 31 326 31C328 31 329 32 330 32C330 33 331 34 332 34C333 35 335 36 335 38C336 40 338 43 340 45C342 47 343 49 343 52C343 58 346 69 347 68C348 68 351 62 351 61C351 60 352 58 353 57C354 57 355 55 355 55C355 54 356 53 357 52C358 50 359 48 360 46C361 44 362 41 364 40C366 36 370 28 370 27C370 25 375 18 378 17C379 16 380 15 380 14C380 13 381 12 382 12C383 11 386 10 388 8C392 4 391 5 396 4C399 4 400 4 400 5C400 6 401 6 401 6C402 5 403 6 403 7C404 7 405 8 406 8C409 8 411 9 411 11C411 11 411 12 412 12C414 12 415 22 415 34C415 41 415 47 415 48C416 55 415 57 413 59C411 60 410 62 412 65C413 67 415 72 416 77C417 85 417 88 417 95C417 109 417 112 422 116C424 118 428 120 430 121C433 122 435 123 436 123C439 124 445 126 447 126C448 126 451 127 455 128C459 128 464 130 466 130C469 131 472 132 474 133C475 134 479 134 487 134C493 134 498 135 499 135C499 136 501 136 503 136C504 136 507 136 510 137C520 140 530 140 533 137C535 136 536 135 537 135C539 135 549 129 552 127C553 125 555 124 558 123C560 122 562 121 562 120C562 118 564 116 566 116C567 116 569 115 569 114C570 112 571 111 572 110C573 110 575 109 576 107C578 105 580 104 580 104C581 104 583 102 585 100C587 99 589 97 589 97C590 97 591 96 592 94C594 93 596 92 597 92C597 92 600 91 601 90C603 88 605 87 605 87C605 88 607 87 609 85C611 83 614 81 622 78C623 77 625 76 626 75C628 73 638 76 642 81C646 87 647 90 645 95C644 98 643 99 643 100C643 101 635 112 633 114C631 116 630 118 630 119C630 122 627 127 623 129C620 131 618 133 617 135C616 136 615 138 614 138C614 139 613 141 612 143C612 145 611 147 610 148C609 149 608 150 608 150C608 151 606 153 605 155C603 157 601 160 601 161C600 162 599 163 598 163C598 164 597 164 597 165C597 166 595 169 592 173C588 177 587 180 588 181C588 183 589 184 591 182C592 181 593 180 593 180C594 180 595 179 596 178C600 174 618 166 618 168C619 169 633 169 634 167C634 165 636 166 636 168C636 170 639 172 641 171C642 171 643 173 645 175C650 179 651 184 648 188C647 190 645 193 645 194C644 196 643 197 641 197C640 197 639 198 638 199C638 200 636 201 634 203C632 204 630 205 630 206C630 207 624 211 621 213C619 214 618 215 618 216C617 217 616 218 615 219C613 219 612 220 612 221C611 222 610 222 609 222C608 222 607 222 607 223C607 223 606 224 605 225C604 225 600 227 596 229C593 231 589 233 588 234C587 234 585 235 584 235C584 235 582 236 581 236C580 237 577 239 576 240C574 243 573 244 571 244C570 244 567 245 565 248C564 250 562 251 561 251C560 250 555 252 553 255C552 256 550 257 549 257C549 257 548 257 548 258C548 258 546 259 544 260C542 261 538 263 536 265C534 267 531 269 530 269C529 269 527 270 526 272C525 273 524 274 523 274C522 274 521 275 521 276C520 278 506 288 504 288C503 288 499 290 494 292C485 296 480 297 472 297C471 298 469 298 467 299C464 300 461 300 459 299Z M443 282C446 281 447 281 451 282C458 285 469 285 476 282C479 280 485 278 489 276C498 273 510 267 510 266C510 266 511 265 513 264C515 264 517 263 519 262C524 257 540 249 543 249C544 249 545 248 546 246C547 244 549 243 550 243C551 243 553 242 554 241C554 240 556 239 556 239C557 239 559 238 560 237C564 233 575 226 578 225C580 225 581 224 581 224C581 223 582 223 583 223C584 223 584 223 590 218C592 216 594 215 595 215C598 215 606 208 608 204C608 202 609 200 611 200C612 200 615 198 617 196C619 195 622 192 623 191C626 188 627 187 626 186C625 186 624 185 623 185C621 184 620 184 618 187C616 189 616 189 615 188C614 186 610 185 610 187C610 188 609 188 609 188C608 188 606 190 604 192C602 193 598 195 597 196C595 196 594 197 594 198C594 199 593 199 593 199C591 198 582 201 577 204C572 207 561 205 561 201C561 201 560 200 559 199C556 196 554 189 556 188C557 187 558 186 558 185C558 183 561 182 564 182C565 182 569 174 570 170C570 168 571 166 573 166C574 166 575 166 576 166C578 166 581 161 580 159C580 158 581 158 581 158C582 159 583 158 583 158C583 157 583 156 583 156C583 155 585 153 587 151C592 146 594 143 594 142C594 141 595 141 596 141C596 141 597 140 597 140C597 138 602 130 603 130C604 130 604 129 604 129C604 128 605 126 606 126C608 125 609 123 609 123C609 122 610 121 611 120C612 120 613 118 613 117C613 115 614 113 615 113C616 112 617 110 617 109C617 108 618 107 619 106C621 105 626 99 626 97C626 96 627 95 627 94C629 91 627 89 624 92C623 93 622 94 621 93C619 91 617 92 617 94C616 96 615 97 614 97C612 97 611 97 610 98C610 99 608 99 606 99C604 99 603 100 602 101C601 103 600 104 598 104C597 105 595 106 595 107C594 107 593 108 592 108C591 108 588 110 587 112C585 114 583 116 582 117C581 118 578 120 575 123C573 125 571 127 570 127C570 126 567 129 564 132C562 135 559 138 557 139C556 139 554 142 554 144C554 145 536 152 533 152C526 152 513 150 508 148C505 147 503 146 483 146C477 145 472 145 471 145C471 144 470 145 469 145C468 146 467 146 466 144C465 142 464 142 462 142C460 143 459 143 459 142C458 141 456 141 454 141C453 141 451 141 450 140C450 139 447 139 444 139C441 139 438 139 438 138C437 137 424 133 421 133C420 133 419 133 418 132C418 131 417 131 416 131C412 131 402 120 402 116C402 114 402 113 401 112C400 112 400 101 401 98C402 97 401 95 401 93C399 91 399 90 400 89C401 88 401 85 400 79C399 70 399 69 400 63C401 60 401 58 400 56C399 53 399 41 401 40C402 38 402 28 401 23L400 19L396 20C392 21 390 23 385 29C382 33 378 38 377 39C375 40 374 44 373 47C372 50 371 52 371 52C371 52 370 54 369 56C368 59 367 61 366 62C364 65 361 72 361 74C361 76 359 82 357 84C355 87 354 90 354 92C354 93 353 94 352 94C350 95 345 103 345 105C345 113 334 114 330 106C328 103 329 91 331 86C331 85 331 84 331 83C330 81 330 80 331 79C333 78 333 76 332 73C331 71 329 64 328 60C327 51 318 41 311 40C309 39 306 38 304 36C302 34 300 33 299 33C298 33 297 32 295 32C294 31 292 30 290 30C288 30 286 29 283 26C281 24 278 22 277 22C276 22 275 21 274 21C271 17 240 14 235 17C234 18 230 18 223 18C218 19 212 19 211 20C210 21 208 21 208 21C206 20 198 23 195 25C194 26 192 27 191 27C191 27 189 28 189 30C188 31 186 33 184 33C183 34 180 36 178 37C176 39 173 41 171 43C168 44 166 45 166 46C166 47 165 48 165 49C162 51 158 59 159 60C159 61 157 65 156 66C155 67 155 69 154 71C153 83 151 96 150 97C149 97 149 98 149 99C150 99 149 101 149 103C148 105 148 106 149 107C150 109 151 113 150 114C149 115 150 118 150 121C151 124 151 128 151 129C152 131 152 133 153 134C155 136 159 145 159 146C159 148 165 154 168 156C170 157 171 159 171 159C171 161 176 166 178 166C179 166 180 167 181 168C181 170 183 171 184 171C185 172 186 173 186 174C187 174 188 175 190 175C194 175 202 178 205 180C207 183 211 184 218 184C221 184 221 185 221 189C221 195 220 196 216 195C215 195 211 195 208 195C196 195 195 195 183 203C179 206 178 206 176 205C174 204 174 204 171 207C170 209 167 211 164 212C162 213 158 215 155 217C153 219 148 222 145 223C140 226 139 228 142 232C143 234 144 234 152 233C157 233 162 233 164 233C172 233 175 233 175 232C175 231 176 231 177 232C178 233 181 233 184 232C187 232 190 231 190 232C190 232 191 231 192 230C193 230 194 229 194 230C195 230 196 229 197 228C199 227 199 227 203 230C205 232 207 233 207 232C208 232 217 235 224 238C226 239 229 240 230 240C233 240 241 242 244 244C245 245 247 245 247 245C248 245 249 245 250 246C251 247 253 248 254 248C255 248 256 248 256 249C257 250 258 250 259 250C261 250 262 251 262 251C263 252 265 253 267 253C284 256 288 256 289 257C289 258 296 258 303 258C310 259 317 259 318 260C319 261 320 261 320 261C320 260 322 261 324 262C326 263 330 263 334 263C339 263 341 263 343 264C344 265 345 266 347 265C348 265 350 265 350 266C351 267 356 267 360 268C365 268 370 269 372 270C377 272 382 274 384 274C385 274 388 275 390 276C392 277 395 278 396 278C396 277 398 278 399 279C401 279 403 280 404 280C405 280 407 280 408 281C409 281 412 282 419 282C421 282 423 283 423 283C423 284 440 283 443 282Z"/><path class='ink__s' pathLength='1' style='--d:0.11s' d="M224 48C221 43 222 35 225 33C226 32 227 31 227 30C227 27 230 25 238 22C247 19 254 21 261 29C264 33 264 35 260 39L256 41L250 38C245 35 244 35 243 36C242 36 241 37 240 37C237 37 233 44 234 47C235 53 226 54 224 48Z"/><path class='ink__s' pathLength='1' style='--d:0.23s' d="M171 95C166 93 166 72 173 69C173 69 174 68 174 67C174 65 180 60 182 61C183 61 184 60 186 59C188 56 191 55 191 57C191 58 194 58 198 58C203 58 204 58 207 60C212 66 208 71 200 71C189 71 185 74 183 87C182 96 179 98 171 95Z"/><path class='ink__s' pathLength='1' style='--d:0.34s' d="M244 142C241 141 237 136 237 135C236 133 235 132 227 128C220 124 214 115 212 104C212 100 211 102 226 84C234 75 243 68 252 64C256 62 259 60 260 60C270 55 281 56 283 62C284 64 285 67 286 68C286 70 287 72 287 74C287 76 288 78 288 80C289 83 290 85 291 95C291 99 292 104 293 107C294 111 294 112 293 115C292 116 291 120 291 122C291 126 283 137 280 137C279 137 278 138 277 138C276 139 275 140 274 140C272 140 271 141 270 141C269 143 247 143 244 142Z M267 131C278 126 283 107 277 92C277 91 276 90 276 89C276 88 276 85 275 82C274 79 274 76 273 74C272 65 264 67 248 82C246 84 242 87 239 89C235 92 226 103 226 106C226 107 232 115 234 116C236 117 238 119 239 120C241 121 243 122 243 122C244 122 246 123 248 125C252 127 255 129 260 131C262 131 264 132 264 132C264 132 265 131 267 131Z"/><path class='ink__s' pathLength='1' style='--d:0.45s' d="M726 315C723 313 721 310 720 308C719 306 717 304 716 302C713 299 708 289 708 287C708 286 707 285 707 283C705 280 702 272 701 268C701 267 701 265 700 263C700 261 699 259 698 257C698 256 697 252 696 248C696 244 695 240 695 238C694 236 699 232 701 233C703 234 707 243 707 245C707 247 708 252 710 256C710 257 710 258 711 260C711 265 713 273 714 276C715 277 716 281 717 284C718 287 720 289 721 290C722 291 722 292 721 294C721 296 721 297 722 297C724 299 729 307 729 309C729 310 730 312 732 313C736 316 736 319 732 320C730 320 729 319 726 315Z"/><path class='ink__s' pathLength='1' style='--d:0.56s' d="M15 371C13 369 13 362 15 360C16 358 16 358 15 355C14 352 16 347 19 343C21 341 24 332 24 330C23 328 25 316 27 314C27 313 28 312 28 311C28 308 32 307 33 309C33 310 33 312 32 312C31 313 31 314 31 316C31 317 31 318 30 318C30 319 29 321 29 323C28 326 27 330 27 332C26 334 25 339 24 341C23 346 22 369 23 368C24 368 24 370 23 372C21 374 17 373 15 371Z"/><path class='ink__s' pathLength='1' style='--d:0.68s' d="M43 378C40 375 40 375 40 367C41 363 42 358 42 357C43 356 44 352 44 349C45 346 46 341 48 339C53 329 55 324 55 323C55 322 56 321 56 320C58 320 60 316 64 306C65 303 67 300 67 298C68 297 68 296 67 294C66 291 70 282 74 281C76 280 76 281 74 285C73 287 72 290 72 291C72 292 71 293 71 294C70 296 69 297 70 298C70 299 69 301 69 302C68 304 67 305 67 306C68 306 67 309 65 313C63 316 62 319 62 320C63 320 62 322 61 324C61 325 60 328 60 330C60 331 59 334 58 337C57 339 56 342 56 343C56 347 55 355 54 357C53 357 53 360 53 362C53 365 51 370 48 373C47 375 47 375 48 377C50 381 47 381 43 378Z"/><path class='ink__s' pathLength='1' style='--d:0.79s' d="M689 328C686 326 683 322 683 320C683 317 683 315 682 314C680 312 677 305 677 304C677 303 676 302 676 301C675 301 674 298 673 294C671 282 671 282 666 271C665 269 664 267 663 267C661 267 659 261 660 258C662 253 670 251 670 256C670 256 671 257 671 258C672 258 673 260 674 262C675 263 676 267 678 269C679 271 680 275 680 278C681 282 682 288 684 294C685 296 685 297 684 299C683 300 682 301 682 302C682 304 686 310 687 310C689 310 689 311 688 313C687 314 688 317 690 317C693 317 695 324 694 326C693 329 692 329 689 328Z"/><path class='ink__s' pathLength='1' style='--d:0.90s' d="M93 811C87 810 80 806 78 801C78 800 77 798 75 797C73 794 70 785 70 779C70 777 70 775 69 775C69 774 68 771 68 768C67 762 65 758 58 753C56 750 55 750 55 742C55 731 54 720 53 698C51 675 51 675 51 668C51 665 50 656 49 648C48 632 48 632 48 596C48 565 48 558 44 551C42 548 41 540 43 540C45 540 45 534 42 531C37 527 33 521 33 519C33 518 32 517 31 517C31 516 30 515 30 513C30 512 29 510 29 509C26 507 24 492 24 470L24 454L26 451C30 447 33 445 36 445C40 445 54 452 54 454C54 454 55 455 56 455C56 455 58 456 59 457C60 458 62 459 63 459C64 459 65 460 66 461C68 465 72 471 73 471C74 471 74 466 75 460C75 455 76 450 76 449C77 449 77 448 77 447C77 445 77 444 78 443C78 443 79 440 80 436C81 433 82 429 83 427C84 425 85 422 85 421C85 418 93 407 98 404C100 403 102 400 103 399C104 398 106 397 107 396C109 396 110 395 110 394C111 393 112 392 114 391C115 391 116 390 116 389C116 388 130 381 133 381C134 381 137 380 140 379C146 377 148 376 154 376C156 375 160 375 162 374C167 373 173 373 181 375C182 375 192 375 201 375C215 376 219 376 220 377C221 378 222 378 225 378C229 378 235 380 238 383C240 384 243 385 245 386C247 387 249 388 250 388C250 389 251 389 252 389C253 389 254 390 255 391C256 392 257 393 258 393C259 393 262 394 265 396C268 398 270 399 271 399C271 399 277 407 277 408C277 409 288 420 289 420C290 420 290 420 290 421C290 422 291 423 293 425C296 428 298 432 301 445C303 451 303 453 302 454C301 456 301 460 302 462C303 463 302 464 302 465C301 466 300 468 300 470C300 472 299 474 299 475C298 476 299 481 301 481C303 481 310 476 311 474C311 474 312 473 313 473C314 473 316 472 317 471C318 470 321 469 324 469C327 468 329 467 330 466C331 464 332 464 334 464C335 465 337 464 338 463C340 461 343 460 350 458C353 458 356 458 358 457C365 456 369 473 364 481C362 483 360 486 356 494C353 501 352 503 337 516C328 525 328 525 330 530C332 533 324 549 319 554C311 561 303 574 303 580C303 583 303 585 303 586C303 587 303 589 304 590C305 592 305 596 306 598C306 609 308 618 311 623C315 629 316 633 317 636C317 637 319 643 322 648C325 653 327 659 327 660C327 665 329 670 334 673C338 677 339 678 339 680C339 681 340 684 341 686C343 691 343 691 343 699C344 701 344 706 345 709C346 712 347 716 347 718C347 719 348 721 348 721C349 722 349 722 348 724C347 727 348 735 350 735C351 735 351 737 352 739C352 742 353 744 353 745C354 745 354 746 354 747C353 748 357 756 360 760C363 763 363 768 360 770C359 770 357 771 357 772C356 773 353 773 344 774C331 774 329 774 328 779C327 780 327 780 326 779C324 778 322 778 315 778C306 779 306 779 304 777C302 775 299 774 295 773C291 772 287 770 286 770C284 768 274 765 258 762C255 761 251 760 250 760C249 759 243 759 238 758C233 758 226 756 221 754C212 751 203 750 200 753C199 753 188 756 176 758C174 758 171 759 170 760C169 761 166 762 164 763C159 764 157 766 159 769C160 769 160 770 160 771C159 771 159 771 158 770C158 768 154 769 153 771C153 772 152 773 151 773C150 773 147 775 144 779C141 782 139 784 138 784C138 783 136 785 134 787C132 790 129 793 128 794C127 795 123 799 121 802C119 805 115 807 114 808C113 808 110 809 109 810C106 812 102 812 93 811Z M105 792C107 790 110 788 110 788C111 788 116 784 121 779C136 764 137 763 143 761C146 759 148 757 149 757C149 756 152 755 155 753C158 752 160 750 161 750C161 749 164 748 167 746C170 745 173 743 174 742C175 741 179 741 186 740C192 740 198 739 201 738C207 735 217 736 220 738C222 739 225 740 228 741C230 741 234 742 236 744C238 745 240 746 242 746C247 746 260 749 263 751C265 751 267 752 268 752C272 752 279 755 282 758C283 759 284 760 285 759C285 758 286 758 288 759C289 759 292 759 293 760C294 760 296 761 297 762C300 763 304 763 304 762C304 761 306 760 308 759C313 757 317 757 322 760C324 760 326 761 331 760C342 759 344 754 338 743C337 741 336 740 336 739C337 739 336 736 335 734C335 732 334 728 333 724C333 718 331 706 329 702C328 699 324 691 322 688C322 686 321 684 321 684C321 683 320 680 319 678C318 676 317 674 317 673C317 672 317 671 316 670C315 670 315 669 315 668C316 666 314 660 312 657C311 655 310 652 310 651C310 649 304 638 297 627C294 621 290 611 289 604C289 601 288 597 288 596C287 596 287 594 287 594C288 593 287 591 287 590C284 584 285 571 288 568C292 563 296 558 296 557C296 556 297 554 298 553C310 541 312 540 313 535C313 532 314 530 317 527C320 524 333 504 333 503C333 503 334 502 336 500C338 499 339 497 339 496C339 495 339 494 340 494C341 493 341 492 341 491C341 490 342 488 343 487C347 484 351 475 349 474C348 473 347 473 344 474C343 475 340 476 339 476C338 476 337 476 337 477C336 478 327 482 324 483C323 483 321 484 319 485C318 486 316 488 315 488C305 494 289 512 289 518C289 519 288 521 286 522C285 524 284 526 284 528C284 530 283 531 282 531C282 532 280 534 279 536C278 539 277 541 276 541C275 541 275 542 275 543C275 545 272 547 268 547C267 547 266 547 265 547C263 548 259 546 257 543C256 541 256 541 258 540C258 540 260 538 261 536C262 534 264 531 266 530C268 528 268 526 268 525C267 522 268 521 271 518C274 514 278 502 277 500C276 500 277 498 278 495C279 492 280 489 280 488C280 486 280 485 281 485C281 484 282 480 282 475C283 470 283 465 284 465C285 465 285 463 285 461C285 459 286 456 287 455C289 453 289 453 288 451C287 451 285 446 284 442C282 437 280 433 279 431C278 430 275 427 274 426C273 424 270 421 268 419C265 417 263 414 262 412C261 411 259 409 258 409C258 409 257 408 256 407C255 406 251 404 247 402C243 399 239 397 238 397C229 392 227 391 215 391C211 390 208 390 207 390C206 389 192 390 191 391C189 392 189 392 188 391C186 390 178 388 173 387C165 387 143 392 141 395C140 396 138 396 134 396C128 396 119 400 119 403C119 404 109 414 108 414C107 414 107 415 107 415C107 416 105 419 102 421C99 424 97 426 97 427C97 428 96 429 96 430C95 430 94 432 94 434C93 436 92 440 91 444C90 447 89 451 89 452C89 457 88 464 87 467C85 474 91 496 96 502C98 503 100 507 102 510C104 513 107 517 110 519C117 525 119 531 113 534C110 535 104 534 101 530C100 528 98 527 96 527C93 526 90 523 90 521C90 520 89 518 88 517C87 516 85 511 84 507C81 498 77 489 75 488C74 488 72 487 71 486C63 482 59 479 59 475C59 474 58 472 56 472C52 471 48 468 45 464C41 458 39 458 37 463C36 467 36 486 37 486C37 487 38 490 38 493C38 497 39 501 39 503C40 505 41 507 40 509C39 512 40 516 43 517C44 517 45 518 46 520C46 521 47 522 48 522C49 523 50 524 50 524C50 525 52 529 54 532C57 536 58 540 58 542C58 544 59 548 60 550C61 555 62 581 61 583C60 583 60 586 61 589C62 592 61 594 61 596C60 598 60 599 61 600C62 602 62 603 61 604C60 604 60 608 60 614C60 619 60 623 60 624C60 626 60 631 60 637C60 643 60 648 60 649C59 650 59 652 59 653C60 655 60 661 60 666C60 673 61 677 62 679C63 680 63 682 63 683C62 683 62 685 63 686C63 687 64 697 64 708C65 729 65 731 69 731C72 731 74 734 73 739C73 742 73 743 77 748C80 753 81 755 81 759C81 762 82 765 83 767C83 769 84 772 84 774C84 775 84 778 85 778C85 779 86 781 86 783C86 786 87 787 91 791C97 797 99 798 105 792Z"/><path class='ink__s' pathLength='1' style='--d:1.01s' d="M307 387C304 385 304 380 307 376C308 375 309 373 309 372C309 368 313 355 314 353C315 352 316 350 317 348C317 346 318 343 320 342C321 341 322 339 322 338C322 335 326 332 327 333C331 334 329 340 321 358C319 362 318 367 318 369C318 370 317 372 317 374C317 375 315 378 314 382C312 388 311 389 307 387Z"/><path class='ink__s' pathLength='1' style='--d:1.12s' d="M345 397C344 396 343 391 343 390C343 389 343 388 343 388C343 378 343 365 343 364C344 363 344 361 343 360C342 359 342 359 343 358C344 357 344 353 343 345C343 334 343 332 348 332C349 332 353 340 352 341C351 341 351 347 351 353C351 366 351 367 350 374C350 377 350 381 350 384C349 386 349 389 348 391C348 392 348 394 348 395C348 397 347 398 345 397Z"/><path class='ink__s' pathLength='1' style='--d:1.24s' d="M492 752C489 752 486 751 484 751C482 751 475 745 474 742C472 735 475 722 481 713C485 707 489 695 489 688C489 685 490 682 490 681C491 678 491 674 489 669C488 665 488 665 489 662C492 659 491 658 488 654C481 647 481 646 481 642C481 639 480 638 478 637C477 636 476 634 476 633C476 631 475 627 473 624C471 621 470 616 469 613C469 607 467 602 464 601C463 600 459 591 459 587C459 585 458 582 457 580C456 578 455 575 455 573C454 571 453 570 452 569C451 569 450 566 449 563C447 560 446 558 446 558C446 558 445 556 444 553C442 548 440 544 434 535C431 532 428 527 427 526C424 519 421 514 418 510C415 506 408 495 405 489C404 486 402 483 400 482C398 481 397 480 396 478C396 476 395 475 394 474C394 473 393 472 393 471C393 470 392 468 391 466C391 465 390 461 390 459C389 457 389 453 388 452C387 451 387 450 388 449C388 448 388 447 387 446C385 442 386 423 389 417C390 415 391 412 391 411C391 409 399 400 401 399C403 398 405 398 409 399C415 400 420 405 423 412C423 414 424 415 425 415C425 415 426 416 426 417C427 419 428 421 430 423C431 425 433 428 433 429C435 432 438 431 438 427C438 426 439 423 440 420C442 418 443 414 443 412C444 411 445 408 446 407C447 406 450 403 451 400C453 398 455 396 455 396C456 396 457 394 458 392C460 388 470 377 488 363C490 361 493 358 493 357C494 357 495 356 496 356C498 356 499 355 500 354C501 353 504 352 506 351C508 349 510 348 510 348C510 348 514 346 518 345C522 344 528 342 531 341C534 340 537 339 538 339C539 338 541 338 541 337C542 337 545 336 548 336C557 336 566 334 567 332C567 331 568 330 568 330C569 330 569 331 569 332C568 333 569 333 572 333C573 333 574 333 574 334C574 334 576 335 578 335C581 335 585 335 587 335C589 336 592 336 592 335C595 334 597 334 596 336C596 338 601 340 606 340C607 340 608 341 609 342C610 343 611 344 611 344C612 344 613 345 614 346C614 346 616 347 617 347C618 347 619 348 620 348C621 349 622 350 622 350C623 350 624 351 625 352C627 353 629 356 631 357C633 358 634 360 634 361C634 361 635 362 636 363C637 364 639 366 640 368C641 370 641 371 643 370C643 370 644 370 644 371C644 372 645 374 646 375C648 376 649 378 649 380C649 382 650 383 650 383C651 383 652 384 652 386C653 388 656 394 658 399C659 400 659 402 659 404C659 406 659 407 660 407C662 409 663 428 662 438C661 441 662 443 662 444C663 445 663 445 661 445C660 445 659 446 659 447C659 450 655 458 653 460C650 462 650 467 653 470C655 472 655 473 656 498C657 504 658 511 659 513C659 514 659 516 660 518C660 522 661 528 662 530C664 534 669 551 669 552C669 553 670 556 671 558C673 560 674 564 674 566C675 567 676 570 678 570C680 572 687 585 687 589C687 590 687 591 688 591C689 591 689 592 688 594C688 595 688 598 690 600C691 603 691 604 690 606C689 607 689 607 691 609C692 611 694 614 695 617C697 620 699 624 700 626C704 629 712 643 712 645C712 645 713 646 714 647C715 648 715 649 714 649C712 651 713 654 715 656C716 656 717 658 717 659C717 660 718 661 718 663C719 664 720 665 720 666C720 667 723 670 726 673C729 677 732 681 733 683C734 686 734 692 733 692C732 692 730 694 728 697C723 705 721 706 716 705C714 704 712 703 711 704C711 704 709 704 708 703C707 703 702 702 696 701C690 700 684 699 682 699C680 698 673 698 667 697C661 697 656 697 655 696C654 696 652 696 651 697C650 698 650 698 648 697C646 696 643 695 639 695C635 695 632 695 631 694C631 693 630 693 628 693C627 693 625 693 624 693C623 692 620 692 618 692C610 691 602 689 601 689C600 688 599 688 598 689C598 690 594 690 590 690C587 691 583 691 582 691C581 692 580 692 579 692C576 690 567 697 563 702C562 704 561 705 558 706C555 707 552 709 550 710C541 720 539 722 539 723C539 723 537 725 535 727C532 729 530 731 530 732C529 733 529 734 528 734C527 734 526 735 525 737C525 739 524 741 522 741C521 741 517 743 514 746C507 750 502 752 498 754C497 754 494 753 492 752Z M505 736C507 734 510 732 511 731C513 729 515 728 515 728C516 728 521 723 526 718C531 712 536 708 536 708C537 708 540 705 543 702C547 698 550 695 551 695C551 695 552 694 553 693C554 691 557 687 559 687C559 687 561 685 562 684C566 678 572 675 582 675C600 675 611 675 612 677C614 678 619 680 632 681C640 682 642 683 644 685C646 687 647 687 649 686C650 685 652 685 658 686C661 687 666 688 667 688C671 688 683 690 690 691C699 694 706 693 707 690C707 688 708 687 711 687C714 686 715 683 712 679C711 677 710 676 710 675C710 675 709 672 707 670C706 667 705 663 705 661C705 655 705 653 703 651C701 649 693 635 693 633C693 633 691 631 690 630C688 628 685 624 683 621C682 618 680 615 679 614C679 613 677 609 676 604C675 600 673 596 673 595C672 594 672 592 672 591C672 590 671 589 671 587C670 586 669 584 668 583C668 582 666 579 664 576C661 573 661 572 661 567C662 564 661 562 661 561C660 561 659 559 658 556C657 554 656 552 655 552C655 552 654 550 654 548C654 545 654 542 653 540C652 538 652 535 652 533C651 525 649 515 647 512C646 508 644 499 644 493C643 488 642 486 640 486C639 487 639 486 639 480C639 473 638 471 635 467C634 466 634 465 635 463C636 460 636 460 633 458C630 456 629 456 629 453C630 451 629 448 627 446C626 444 625 443 625 443C626 443 625 441 624 439C623 437 622 435 622 434C623 434 623 433 622 433C622 432 621 431 621 429C620 425 617 422 615 422C615 422 614 421 613 419C611 416 603 415 602 418C602 421 602 429 602 433C602 434 602 438 602 441C601 444 601 446 602 447C603 447 603 448 602 449C602 450 602 452 603 452C604 453 604 456 605 459C605 461 606 465 607 466C608 467 608 469 608 470C607 472 608 474 609 475C610 476 611 477 611 479C611 480 611 482 612 483C613 484 613 486 614 487C615 489 616 490 617 491C619 491 620 495 620 502C620 505 616 510 615 508C614 508 613 507 611 508C609 508 607 508 607 507C607 504 606 501 604 500C604 499 603 498 603 497C604 496 603 495 603 493C602 492 601 490 601 490C601 489 600 486 599 484C596 478 592 464 591 452C590 451 590 449 589 449C588 449 588 447 588 445C588 436 586 415 585 413C584 413 584 411 585 410C585 409 586 407 585 405C585 401 588 397 591 397C591 397 592 396 593 395C594 394 599 394 599 396C599 396 601 397 602 397C604 398 607 399 608 400C609 402 611 403 612 402C612 402 613 402 613 403C614 403 615 404 615 403C616 403 618 404 619 406C620 408 622 410 623 410C624 410 625 411 625 413C626 415 627 416 628 417C628 418 629 419 629 420C629 421 630 422 630 423C631 424 632 425 632 425C632 426 633 429 634 431C636 434 637 437 637 438C637 439 638 440 638 440C639 440 640 441 640 443C640 445 642 449 643 448C650 440 651 426 645 405C642 395 641 392 640 391C639 391 638 390 638 390C638 385 617 360 613 360C612 360 611 359 610 358C610 357 609 356 608 356C607 356 605 355 603 354C601 352 599 351 598 352C598 352 596 352 595 351C589 347 556 346 551 349C549 350 548 351 547 350C546 350 545 350 545 351C544 352 543 352 541 352C537 352 537 353 539 355C542 360 540 375 536 380C533 383 528 383 525 381C523 379 523 362 525 360C528 357 524 357 519 360C517 361 515 362 514 362C513 362 512 363 510 363C509 364 506 366 502 368C496 371 488 377 487 380C486 381 487 382 488 383C493 387 492 404 487 408C482 411 476 408 476 402C476 400 475 398 475 397L474 394L471 397C470 399 467 402 466 404C465 406 463 409 461 411C460 412 458 416 457 418C456 420 455 424 453 426C452 429 451 432 450 434C450 435 450 438 450 439C449 440 449 444 448 448C448 451 448 456 448 458C446 471 446 475 447 477C448 478 449 482 449 484C449 490 454 498 460 505C461 506 463 509 463 509C463 510 465 510 466 511C471 511 474 522 470 526C467 530 462 528 453 518C451 517 449 515 449 515C448 515 440 503 440 501C440 501 439 500 438 499C434 495 431 471 434 465C434 463 435 461 434 461C434 460 434 458 435 456C437 448 435 444 430 446C429 447 427 447 427 446C424 446 420 438 420 435C420 434 420 433 419 432C418 432 418 431 418 430C418 421 407 411 405 417C401 425 401 441 403 449C404 451 404 454 405 456C405 466 406 467 409 471C412 472 413 475 414 477C415 480 417 484 419 487C421 491 425 497 427 501C432 511 447 532 451 535C453 536 454 538 455 541C455 542 456 544 456 545C457 546 458 548 458 551C458 556 459 558 462 563C464 567 465 569 465 571C464 572 465 574 466 575C467 576 468 578 468 579C468 581 469 583 470 585C475 594 479 603 479 605C479 606 480 607 480 608C481 609 482 611 482 612C482 614 482 615 483 615C483 616 484 618 485 620C486 623 487 626 489 628C490 630 491 632 491 633C491 634 492 636 493 637C494 638 495 640 495 641C495 641 497 643 499 645C502 648 502 648 501 651C500 654 500 655 502 658C503 659 504 662 504 665C504 667 505 669 505 670C507 673 506 682 504 691C502 694 501 699 501 701C501 702 501 704 500 704C499 705 493 716 492 720C492 722 491 725 490 726C487 729 488 732 490 736C493 740 500 740 505 736Z"/><path class='ink__s' pathLength='1' style='--d:1.35s' d="M192 509C192 509 190 508 188 508C184 507 176 502 170 496C170 495 167 492 164 489C160 485 158 481 157 478C156 476 154 473 154 472C153 471 153 469 153 469C153 468 152 467 152 466C147 463 148 448 154 444C160 440 189 434 209 434C212 434 215 433 215 433C216 433 218 433 220 433C222 434 225 435 227 435C237 438 239 449 232 465C231 468 230 470 230 471C230 472 229 474 228 476C227 479 226 481 226 481C226 484 215 503 212 506C208 510 206 511 201 508C198 507 198 507 196 508C194 510 192 511 192 509Z M208 489C210 487 212 484 212 483C212 482 212 481 213 480C217 478 225 453 224 449C222 444 206 442 194 445C191 445 186 447 181 447C162 450 157 458 165 468C166 469 168 471 169 474C171 478 183 490 186 490C187 490 189 491 191 492C198 496 203 495 208 489Z"/><path class='ink__s' pathLength='1' style='--d:1.46s' d="M157 422C148 418 153 400 162 400C167 400 169 402 169 410C170 417 168 421 164 421C163 421 162 421 162 422C161 423 160 423 157 422Z"/><path class='ink__s' pathLength='1' style='--d:1.57s' d="M213 416C209 414 208 412 208 406C208 394 217 391 223 402C227 408 219 420 213 416Z"/><path class='ink__s' pathLength='1' style='--d:1.69s' d="M512 480C510 480 508 479 507 477C506 476 504 475 502 475C501 475 500 474 500 473C500 471 499 469 497 468C492 464 487 460 486 457C485 455 484 454 484 454C483 454 483 453 483 453C483 452 482 451 481 450C480 448 479 446 478 444C477 436 487 429 516 416C519 415 526 413 539 409C542 408 546 407 548 406C556 404 562 406 564 411C567 418 564 433 559 438C558 439 556 441 555 444C554 446 552 448 551 449C551 450 550 451 550 452C550 452 550 453 549 453C548 453 544 460 544 462C544 464 537 471 536 471C535 471 532 473 530 475C524 480 520 481 512 480Z M528 459C531 457 533 455 533 454C534 452 536 449 539 445C541 444 543 441 543 440C546 435 548 432 549 430C550 429 551 427 552 425C552 420 550 419 542 421C540 422 537 422 536 422C536 422 535 423 534 424C533 425 532 425 531 425C531 424 527 426 524 428C520 429 516 431 515 431C512 431 510 432 510 435C509 436 508 437 507 437C504 437 497 445 497 448C497 449 499 451 502 453C504 455 508 458 510 460C515 464 520 464 528 459Z"/></svg>